<?xml version="1.0" encoding="UTF-8" standalone="no"?>
<svg width="16px" height="16px" viewBox="0 0 16 16" version="1.1" xmlns="http://www.w3.org/2000/svg" xmlns:xlink="http://www.w3.org/1999/xlink" xmlns:sketch="http://www.bohemiancoding.com/sketch/ns">
    <!-- Generator: Sketch 3.2.2 (9983) - http://www.bohemiancoding.com/sketch -->
    <title>refresh</title>
    <desc>Created with Sketch.</desc>
    <defs></defs>
    <g id="Page-1" stroke="none" stroke-width="1" fill="none" fill-rule="evenodd" sketch:type="MSPage">
        <g id="refresh" sketch:type="MSLayerGroup" transform="translate(8.000000, 8.000000) scale(-1, 1) translate(-8.000000, -8.000000) translate(-1.000000, 0.000000)" fill="#4F585C">
            <g id="board-followers" sketch:type="MSShapeGroup">
                <g id="board-followers-a-01">
                    <path d="M4.624511,12.1204656 C2.418229,9.7476135 2.457644,6.0277145 4.749655,3.719899 C5.687744,2.7748968 6.86134,2.2102605 8.08125,2.0250046 L8.012272,0 C6.30164,0.2079202 4.645204,0.9716081 3.332668,2.2930344 C0.261216,5.3872021 0.224757,10.3812281 3.212451,13.5433886 L1.514629,15.2540494 L6.889916,15.5476997 L6.87415,9.8560079 L4.624511,12.1204656 L4.624511,12.1204656 Z M11.109345,0.4532857 L11.125111,6.1449775 L13.37475,3.878549 C15.582018,6.2514011 15.542602,9.9713001 13.250591,12.2791156 C12.312503,13.2241178 11.138906,13.7877687 9.918997,13.97401 L9.986989,16 C11.698606,15.7920798 13.355042,15.0283919 14.666593,13.7069656 C17.73903,10.6127979 17.77549,5.6187719 14.78681,2.4566114 L16.484632,0.746936 L11.109345,0.4532857 L11.109345,0.4532857 Z" id="icon-refresh"></path>
                </g>
            </g>
        </g>
    </g>
</svg>